<mxfile host="app.diagrams.net" modified="2021-12-03T08:41:35.047Z" agent="5.0 (Windows NT 10.0; Win64; x64) AppleWebKit/537.36 (KHTML, like Gecko) Chrome/96.0.4664.55 Safari/537.36 Edg/96.0.1054.34" etag="-gKbOOELKzSN_dprYWSK" version="15.8.9" type="github">
  <diagram id="prtHgNgQTEPvFCAcTncT" name="Page-1">
    <mxGraphModel dx="1038" dy="579" grid="1" gridSize="10" guides="1" tooltips="1" connect="1" arrows="1" fold="1" page="1" pageScale="1" pageWidth="827" pageHeight="1169" math="0" shadow="0">
      <root>
        <mxCell id="0" />
        <mxCell id="1" parent="0" />
        <mxCell id="QB9qPfbNWzUi7Y-tjw_x-1" value="数据平台" style="rounded=1;whiteSpace=wrap;html=1;" vertex="1" parent="1">
          <mxGeometry x="345" y="270" width="230" height="60" as="geometry" />
        </mxCell>
        <mxCell id="QB9qPfbNWzUi7Y-tjw_x-8" style="edgeStyle=orthogonalEdgeStyle;rounded=0;orthogonalLoop=1;jettySize=auto;html=1;exitX=0.5;exitY=0;exitDx=0;exitDy=0;entryX=0;entryY=0.5;entryDx=0;entryDy=0;" edge="1" parent="1" source="QB9qPfbNWzUi7Y-tjw_x-2" target="QB9qPfbNWzUi7Y-tjw_x-1">
          <mxGeometry relative="1" as="geometry" />
        </mxCell>
        <mxCell id="QB9qPfbNWzUi7Y-tjw_x-2" value="股票维护系统" style="rounded=1;whiteSpace=wrap;html=1;" vertex="1" parent="1">
          <mxGeometry x="120" y="400" width="120" height="60" as="geometry" />
        </mxCell>
        <mxCell id="QB9qPfbNWzUi7Y-tjw_x-11" style="edgeStyle=orthogonalEdgeStyle;rounded=0;orthogonalLoop=1;jettySize=auto;html=1;exitX=0.5;exitY=0;exitDx=0;exitDy=0;entryX=0.25;entryY=1;entryDx=0;entryDy=0;" edge="1" parent="1" source="QB9qPfbNWzUi7Y-tjw_x-3" target="QB9qPfbNWzUi7Y-tjw_x-1">
          <mxGeometry relative="1" as="geometry" />
        </mxCell>
        <mxCell id="QB9qPfbNWzUi7Y-tjw_x-3" value="债券维护系统" style="rounded=1;whiteSpace=wrap;html=1;" vertex="1" parent="1">
          <mxGeometry x="260" y="400" width="120" height="60" as="geometry" />
        </mxCell>
        <mxCell id="QB9qPfbNWzUi7Y-tjw_x-14" style="edgeStyle=orthogonalEdgeStyle;rounded=0;orthogonalLoop=1;jettySize=auto;html=1;exitX=0.5;exitY=0;exitDx=0;exitDy=0;entryX=0.5;entryY=1;entryDx=0;entryDy=0;startArrow=none;" edge="1" parent="1" source="QB9qPfbNWzUi7Y-tjw_x-15" target="QB9qPfbNWzUi7Y-tjw_x-1">
          <mxGeometry relative="1" as="geometry" />
        </mxCell>
        <mxCell id="QB9qPfbNWzUi7Y-tjw_x-4" value="核心参数维护系统&lt;br&gt;数据服务" style="rounded=1;whiteSpace=wrap;html=1;" vertex="1" parent="1">
          <mxGeometry x="400" y="400" width="120" height="60" as="geometry" />
        </mxCell>
        <mxCell id="QB9qPfbNWzUi7Y-tjw_x-18" style="edgeStyle=orthogonalEdgeStyle;rounded=0;orthogonalLoop=1;jettySize=auto;html=1;exitX=0.5;exitY=0;exitDx=0;exitDy=0;entryX=0.75;entryY=1;entryDx=0;entryDy=0;startArrow=none;" edge="1" parent="1" source="QB9qPfbNWzUi7Y-tjw_x-20" target="QB9qPfbNWzUi7Y-tjw_x-1">
          <mxGeometry relative="1" as="geometry" />
        </mxCell>
        <mxCell id="QB9qPfbNWzUi7Y-tjw_x-5" value="财汇" style="rounded=1;whiteSpace=wrap;html=1;" vertex="1" parent="1">
          <mxGeometry x="540" y="400" width="120" height="60" as="geometry" />
        </mxCell>
        <mxCell id="QB9qPfbNWzUi7Y-tjw_x-19" style="edgeStyle=orthogonalEdgeStyle;rounded=0;orthogonalLoop=1;jettySize=auto;html=1;exitX=0.5;exitY=0;exitDx=0;exitDy=0;entryX=1;entryY=0.5;entryDx=0;entryDy=0;startArrow=none;" edge="1" parent="1" source="QB9qPfbNWzUi7Y-tjw_x-22" target="QB9qPfbNWzUi7Y-tjw_x-1">
          <mxGeometry relative="1" as="geometry" />
        </mxCell>
        <mxCell id="QB9qPfbNWzUi7Y-tjw_x-6" value="路透" style="rounded=1;whiteSpace=wrap;html=1;" vertex="1" parent="1">
          <mxGeometry x="680" y="400" width="120" height="60" as="geometry" />
        </mxCell>
        <mxCell id="QB9qPfbNWzUi7Y-tjw_x-9" value="股票基本信息&lt;br&gt;行情&lt;br&gt;股本&lt;br&gt;事件&lt;br&gt;指数历史成分&lt;br&gt;指数基本信息&lt;br&gt;指数点位&lt;br&gt;" style="text;html=1;strokeColor=none;fillColor=none;align=center;verticalAlign=middle;whiteSpace=wrap;rounded=0;" vertex="1" parent="1">
          <mxGeometry x="80" y="285" width="100" height="30" as="geometry" />
        </mxCell>
        <mxCell id="QB9qPfbNWzUi7Y-tjw_x-12" value="债券基本信息&lt;br&gt;行情&lt;br&gt;估值" style="text;html=1;strokeColor=none;fillColor=none;align=center;verticalAlign=middle;whiteSpace=wrap;rounded=0;" vertex="1" parent="1">
          <mxGeometry x="282.5" y="343" width="75" height="30" as="geometry" />
        </mxCell>
        <mxCell id="QB9qPfbNWzUi7Y-tjw_x-15" value="交易日历&lt;br&gt;权重" style="text;html=1;strokeColor=none;fillColor=none;align=center;verticalAlign=middle;whiteSpace=wrap;rounded=0;" vertex="1" parent="1">
          <mxGeometry x="420" y="343" width="80" height="30" as="geometry" />
        </mxCell>
        <mxCell id="QB9qPfbNWzUi7Y-tjw_x-16" value="" style="edgeStyle=orthogonalEdgeStyle;rounded=0;orthogonalLoop=1;jettySize=auto;html=1;exitX=0.5;exitY=0;exitDx=0;exitDy=0;entryX=0.5;entryY=1;entryDx=0;entryDy=0;endArrow=none;" edge="1" parent="1" source="QB9qPfbNWzUi7Y-tjw_x-4" target="QB9qPfbNWzUi7Y-tjw_x-15">
          <mxGeometry relative="1" as="geometry">
            <mxPoint x="460" y="400" as="sourcePoint" />
            <mxPoint x="460" y="330" as="targetPoint" />
          </mxGeometry>
        </mxCell>
        <mxCell id="QB9qPfbNWzUi7Y-tjw_x-20" value="公司信息&lt;br&gt;财务指标" style="text;html=1;strokeColor=none;fillColor=none;align=center;verticalAlign=middle;whiteSpace=wrap;rounded=0;" vertex="1" parent="1">
          <mxGeometry x="535" y="370" width="130" height="30" as="geometry" />
        </mxCell>
        <mxCell id="QB9qPfbNWzUi7Y-tjw_x-21" value="" style="edgeStyle=orthogonalEdgeStyle;rounded=0;orthogonalLoop=1;jettySize=auto;html=1;exitX=0.5;exitY=0;exitDx=0;exitDy=0;entryX=0.75;entryY=1;entryDx=0;entryDy=0;endArrow=none;" edge="1" parent="1" source="QB9qPfbNWzUi7Y-tjw_x-5" target="QB9qPfbNWzUi7Y-tjw_x-20">
          <mxGeometry relative="1" as="geometry">
            <mxPoint x="600" y="400" as="sourcePoint" />
            <mxPoint x="517.5" y="330" as="targetPoint" />
          </mxGeometry>
        </mxCell>
        <mxCell id="QB9qPfbNWzUi7Y-tjw_x-22" value="海外行情" style="text;html=1;strokeColor=none;fillColor=none;align=center;verticalAlign=middle;whiteSpace=wrap;rounded=0;" vertex="1" parent="1">
          <mxGeometry x="710" y="343" width="60" height="30" as="geometry" />
        </mxCell>
        <mxCell id="QB9qPfbNWzUi7Y-tjw_x-24" value="" style="edgeStyle=orthogonalEdgeStyle;rounded=0;orthogonalLoop=1;jettySize=auto;html=1;exitX=0.5;exitY=0;exitDx=0;exitDy=0;entryX=0.5;entryY=1;entryDx=0;entryDy=0;endArrow=none;" edge="1" parent="1" source="QB9qPfbNWzUi7Y-tjw_x-6" target="QB9qPfbNWzUi7Y-tjw_x-22">
          <mxGeometry relative="1" as="geometry">
            <mxPoint x="740" y="400" as="sourcePoint" />
            <mxPoint x="575" y="300" as="targetPoint" />
          </mxGeometry>
        </mxCell>
        <mxCell id="QB9qPfbNWzUi7Y-tjw_x-26" style="edgeStyle=orthogonalEdgeStyle;rounded=0;orthogonalLoop=1;jettySize=auto;html=1;exitX=0.5;exitY=0;exitDx=0;exitDy=0;entryX=1;entryY=0.5;entryDx=0;entryDy=0;" edge="1" parent="1" source="QB9qPfbNWzUi7Y-tjw_x-25" target="QB9qPfbNWzUi7Y-tjw_x-1">
          <mxGeometry relative="1" as="geometry" />
        </mxCell>
        <mxCell id="QB9qPfbNWzUi7Y-tjw_x-25" value="其他导入" style="rounded=1;whiteSpace=wrap;html=1;" vertex="1" parent="1">
          <mxGeometry x="820" y="400" width="120" height="60" as="geometry" />
        </mxCell>
        <mxCell id="QB9qPfbNWzUi7Y-tjw_x-27" value="行业分类&lt;br&gt;部分wind导入" style="text;html=1;strokeColor=none;fillColor=none;align=center;verticalAlign=middle;whiteSpace=wrap;rounded=0;" vertex="1" parent="1">
          <mxGeometry x="820" y="343" width="120" height="30" as="geometry" />
        </mxCell>
        <mxCell id="QB9qPfbNWzUi7Y-tjw_x-28" value="研发平台" style="rounded=1;whiteSpace=wrap;html=1;" vertex="1" parent="1">
          <mxGeometry x="320" y="100" width="280" height="60" as="geometry" />
        </mxCell>
        <mxCell id="QB9qPfbNWzUi7Y-tjw_x-29" value="" style="endArrow=classic;html=1;rounded=0;exitX=0.533;exitY=0.043;exitDx=0;exitDy=0;exitPerimeter=0;" edge="1" parent="1">
          <mxGeometry width="50" height="50" relative="1" as="geometry">
            <mxPoint x="467.5899999999999" y="269.58000000000004" as="sourcePoint" />
            <mxPoint x="468" y="167" as="targetPoint" />
          </mxGeometry>
        </mxCell>
        <mxCell id="QB9qPfbNWzUi7Y-tjw_x-30" value="指标&lt;br&gt;行业分类&lt;br&gt;公司信息&lt;br&gt;码表" style="text;html=1;strokeColor=none;fillColor=none;align=center;verticalAlign=middle;whiteSpace=wrap;rounded=0;" vertex="1" parent="1">
          <mxGeometry x="380" y="180" width="170" height="30" as="geometry" />
        </mxCell>
      </root>
    </mxGraphModel>
  </diagram>
</mxfile>
